{
  "accessors": [
    {
      "bufferView": 2,
      "componentType": 5126,
      "count": 220,
      "max": [
        222.85426330566406,
        274.0660705566406,
        33.0640983581543
      ],
      "min": [
        19.072017669677734,
        115.56639862060547,
        21.6917667388916
      ],
      "type": "VEC3"
    },
    {
      "bufferView": 2,
      "byteOffset": 2640,
      "componentType": 5126,
      "count": 220,
      "max": [
        0.016662564128637314,
        0.012782977893948555,
        1.0
      ],
      "min": [
        -0.01666256971657276,
        -0.012783003970980644,
        -1.0
      ],
      "type": "VEC3"
    },
    {
      "bufferView": 1,
      "componentType": 5126,
      "count": 220,
      "max": [
        0.9703795909881592,
        1.0
      ],
      "min": [
        0.0,
        0.0
      ],
      "type": "VEC2"
    },
    {
      "bufferView": 0,
      "componentType": 5125,
      "count": 636,
      "type": "SCALAR"
    },
    {
      "bufferView": 2,
      "byteOffset": 5280,
      "componentType": 5126,
      "count": 9541,
      "max": [
        230.7770233154297,
        282.0768737792969,
        41.333763122558594
      ],
      "min": [
        11.059142112731934,
        107.55261993408203,
        21.6917667388916
      ],
      "type": "VEC3"
    },
    {
      "bufferView": 2,
      "byteOffset": 119772,
      "componentType": 5126,
      "count": 9541,
      "max": [
        0.9996058940887451,
        0.999605655670166,
        0.9996090531349182
      ],
      "min": [
        -0.9996061325073242,
        -0.999605655670166,
        -0.9731663465499878
      ],
      "type": "VEC3"
    },
    {
      "bufferView": 1,
      "byteOffset": 1760,
      "componentType": 5126,
      "count": 9541,
      "max": [
        1.0,
        1.0
      ],
      "min": [
        0.0,
        0.0
      ],
      "type": "VEC2"
    },
    {
      "bufferView": 0,
      "byteOffset": 2544,
      "componentType": 5125,
      "count": 52932,
      "type": "SCALAR"
    },
    {
      "bufferView": 2,
      "byteOffset": 234264,
      "componentType": 5126,
      "count": 2032,
      "max": [
        230.7770233154297,
        224.4095458984375,
        41.333763122558594
      ],
      "min": [
        66.84345245361328,
        107.55261993408203,
        23.64670753479004
      ],
      "type": "VEC3"
    },
    {
      "bufferView": 2,
      "byteOffset": 258648,
      "componentType": 5126,
      "count": 2032,
      "max": [
        0.9995841979980469,
        0.9987443685531616,
        1.0
      ],
      "min": [
        -0.9980222582817078,
        -0.9993700385093689,
        -1.0
      ],
      "type": "VEC3"
    },
    {
      "bufferView": 1,
      "byteOffset": 78088,
      "componentType": 5126,
      "count": 2032,
      "max": [
        1.0,
        1.0
      ],
      "min": [
        0.0,
        0.0
      ],
      "type": "VEC2"
    },
    {
      "bufferView": 0,
      "byteOffset": 214272,
      "componentType": 5125,
      "count": 10428,
      "type": "SCALAR"
    },
    {
      "bufferView": 2,
      "byteOffset": 283032,
      "componentType": 5126,
      "count": 9946,
      "max": [
        216.88575744628906,
        280.102783203125,
        23.232419967651367
      ],
      "min": [
        -187.17662048339844,
        -67.34910583496094,
        -7.006217956542969
      ],
      "type": "VEC3"
    },
    {
      "bufferView": 2,
      "byteOffset": 402384,
      "componentType": 5126,
      "count": 9946,
      "max": [
        0.9998916387557983,
        0.999796450138092,
        0.9998989105224609
      ],
      "min": [
        -0.9999909400939941,
        -0.9998217225074768,
        -0.9999285936355591
      ],
      "type": "VEC3"
    },
    {
      "bufferView": 1,
      "byteOffset": 94344,
      "componentType": 5126,
      "count": 9946,
      "max": [
        1.0,
        1.0
      ],
      "min": [
        0.0,
        0.0
      ],
      "type": "VEC2"
    },
    {
      "bufferView": 0,
      "byteOffset": 255984,
      "componentType": 5125,
      "count": 52662,
      "type": "SCALAR"
    },
    {
      "bufferView": 2,
      "byteOffset": 521736,
      "componentType": 5126,
      "count": 262,
      "max": [
        206.8782196044922,
        270.08502197265625,
        23.232419967651367
      ],
      "min": [
        -177.17568969726563,
        -57.3437385559082,
        -7.006217956542969
      ],
      "type": "VEC3"
    },
    {
      "bufferView": 2,
      "byteOffset": 524880,
      "componentType": 5126,
      "count": 262,
      "max": [
        0.03933681547641754,
        0.01722382940351963,
        1.0
      ],
      "min": [
        -0.0393306240439415,
        -0.017220333218574524,
        -1.0
      ],
      "type": "VEC3"
    },
    {
      "bufferView": 1,
      "byteOffset": 173912,
      "componentType": 5126,
      "count": 262,
      "max": [
        1.0,
        1.0
      ],
      "min": [
        0.0,
        0.14738774299621582
      ],
      "type": "VEC2"
    },
    {
      "bufferView": 0,
      "byteOffset": 466632,
      "componentType": 5125,
      "count": 774,
      "type": "SCALAR"
    },
    {
      "bufferView": 2,
      "byteOffset": 528024,
      "componentType": 5126,
      "count": 7622,
      "max": [
        265.2283020019531,
        91.13632202148438,
        34.90482711791992
      ],
      "min": [
        -225.16046142578125,
        -35.94969177246094,
        22.076400756835938
      ],
      "type": "VEC3"
    },
    {
      "bufferView": 2,
      "byteOffset": 619488,
      "componentType": 5126,
      "count": 7622,
      "max": [
        0.9999842047691345,
        0.9995138049125671,
        1.0
      ],
      "min": [
        -0.999995768070221,
        -0.9996815919876099,
        -0.708052396774292
      ],
      "type": "VEC3"
    },
    {
      "bufferView": 1,
      "byteOffset": 176008,
      "componentType": 5126,
      "count": 7622,
      "max": [
        1.0,
        1.0
      ],
      "min": [
        0.0,
        0.0
      ],
      "type": "VEC2"
    },
    {
      "bufferView": 0,
      "byteOffset": 469728,
      "componentType": 5125,
      "count": 38364,
      "type": "SCALAR"
    },
    {
      "bufferView": 2,
      "byteOffset": 710952,
      "componentType": 5126,
      "count": 880,
      "max": [
        43.90547561645508,
        32.64714431762695,
        33.19972229003906
      ],
      "min": [
        -3.239159345626831,
        0.38770851492881775,
        22.502647399902344
      ],
      "type": "VEC3"
    },
    {
      "bufferView": 2,
      "byteOffset": 721512,
      "componentType": 5126,
      "count": 880,
      "max": [
        0.9992082715034485,
        0.9997284412384033,
        1.0
      ],
      "min": [
        -0.9999874234199524,
        -0.9992811679840088,
        -0.9988137483596802
      ],
      "type": "VEC3"
    },
    {
      "bufferView": 1,
      "byteOffset": 236984,
      "componentType": 5126,
      "count": 880,
      "max": [
        1.0,
        1.0
      ],
      "min": [
        0.0,
        0.0
      ],
      "type": "VEC2"
    },
    {
      "bufferView": 0,
      "byteOffset": 623184,
      "componentType": 5125,
      "count": 4080,
      "type": "SCALAR"
    }
  ],
  "asset": {
    "extras": {
      "author": "jennihoang (https://sketchfab.com/jennihoang)",
      "license": "CC-BY-4.0 (http://creativecommons.org/licenses/by/4.0/)",
      "source": "https://sketchfab.com/3d-models/hello-kitty-789a1d00abb24f65a212fc9db434c543",
      "title": "Hello Kitty"
    },
    "generator": "Sketchfab-12.66.0",
    "version": "2.0"
  },
  "bufferViews": [
    {
      "buffer": 0,
      "byteLength": 639504,
      "name": "floatBufferViews",
      "target": 34963
    },
    {
      "buffer": 0,
      "byteLength": 244024,
      "byteOffset": 639504,
      "byteStride": 8,
      "name": "floatBufferViews",
      "target": 34962
    },
    {
      "buffer": 0,
      "byteLength": 732072,
      "byteOffset": 883528,
      "byteStride": 12,
      "name": "floatBufferViews",
      "target": 34962
    }
  ],
  "buffers": [
    {
      "byteLength": 1615600,
      "uri": "scene.bin"
    }
  ],
  "materials": [
    {
      "doubleSided": true,
      "name": "material",
      "pbrMetallicRoughness": {
        "baseColorFactor": [
          0.5329208617282817,
          0.02471042404855131,
          0.02471042404855131,
          1.0
        ],
        "metallicFactor": 0.3156008165936137,
        "roughnessFactor": 0.5855619741040607
      }
    },
    {
      "doubleSided": true,
      "name": "Mat.1",
      "pbrMetallicRoughness": {
        "baseColorFactor": [
          0.9022800986427694,
          0.9022800986427694,
          0.9022800986427694,
          1.0
        ],
        "metallicFactor": 0.11211244450059048,
        "roughnessFactor": 0.4634689508482467
      }
    },
    {
      "doubleSided": true,
      "name": "Mat.2",
      "pbrMetallicRoughness": {
        "baseColorFactor": [
          0.40990987343505997,
          0.22574047312241854,
          0.031998191252628504,
          1.0
        ],
        "metallicFactor": 0.3562984910122184,
        "roughnessFactor": 0.8123061601505723
      }
    },
    {
      "doubleSided": true,
      "name": "Mat.3",
      "pbrMetallicRoughness": {
        "baseColorFactor": [
          0.0,
          0.0,
          0.0,
          1.0
        ],
        "metallicFactor": 0.0,
        "roughnessFactor": 0.6030038345691769
      }
    }
  ],
  "meshes": [
    {
      "name": "Object_0",
      "primitives": [
        {
          "attributes": {
            "NORMAL": 1,
            "POSITION": 0,
            "TEXCOORD_0": 2
          },
          "indices": 3,
          "material": 0,
          "mode": 4
        }
      ]
    },
    {
      "name": "Object_1",
      "primitives": [
        {
          "attributes": {
            "NORMAL": 5,
            "POSITION": 4,
            "TEXCOORD_0": 6
          },
          "indices": 7,
          "material": 0,
          "mode": 4
        }
      ]
    },
    {
      "name": "Object_2",
      "primitives": [
        {
          "attributes": {
            "NORMAL": 9,
            "POSITION": 8,
            "TEXCOORD_0": 10
          },
          "indices": 11,
          "material": 0,
          "mode": 4
        }
      ]
    },
    {
      "name": "Object_3",
      "primitives": [
        {
          "attributes": {
            "NORMAL": 13,
            "POSITION": 12,
            "TEXCOORD_0": 14
          },
          "indices": 15,
          "material": 1,
          "mode": 4
        }
      ]
    },
    {
      "name": "Object_4",
      "primitives": [
        {
          "attributes": {
            "NORMAL": 17,
            "POSITION": 16,
            "TEXCOORD_0": 18
          },
          "indices": 19,
          "material": 1,
          "mode": 4
        }
      ]
    },
    {
      "name": "Object_5",
      "primitives": [
        {
          "attributes": {
            "NORMAL": 21,
            "POSITION": 20,
            "TEXCOORD_0": 22
          },
          "indices": 23,
          "material": 3,
          "mode": 4
        }
      ]
    },
    {
      "name": "Object_6",
      "primitives": [
        {
          "attributes": {
            "NORMAL": 25,
            "POSITION": 24,
            "TEXCOORD_0": 26
          },
          "indices": 27,
          "material": 2,
          "mode": 4
        }
      ]
    }
  ],
  "nodes": [
    {
      "children": [
        1
      ],
      "matrix": [
        1.0,
        0.0,
        0.0,
        0.0,
        0.0,
        2.220446049250313e-16,
        -1.0,
        0.0,
        0.0,
        1.0,
        2.220446049250313e-16,
        0.0,
        0.0,
        0.0,
        0.0,
        1.0
      ],
      "name": "Sketchfab_model"
    },
    {
      "children": [
        2,
        3,
        4,
        5,
        6,
        7,
        8
      ],
      "name": "HelloKitty.obj.cleaner.materialmerger.gles"
    },
    {
      "mesh": 0,
      "name": "Object_2"
    },
    {
      "mesh": 1,
      "name": "Object_3"
    },
    {
      "mesh": 2,
      "name": "Object_4"
    },
    {
      "mesh": 3,
      "name": "Object_5"
    },
    {
      "mesh": 4,
      "name": "Object_6"
    },
    {
      "mesh": 5,
      "name": "Object_7"
    },
    {
      "mesh": 6,
      "name": "Object_8"
    }
  ],
  "scene": 0,
  "scenes": [
    {
      "name": "Sketchfab_Scene",
      "nodes": [
        0
      ]
    }
  ]
}
