<svg
 t="1718416387886" class="icon" viewBox="0 0 1024 1024" version="1.1" xmlns="http://www.w3.org/2000/svg" p-id="3314" width="16" height="16">
<path d="M817.12 539.36a34.56 34.56 0 0 0-34.24 35.36v315.04h-544V576a34.4 34.4 0 1 0-68.64 0v348.16A34.88 34.88 0 0 0 203.36 960h613.76a35.04 35.04 0 0 0 33.92-35.84V576a35.04 35.04 0 0 0-33.92-35.84z m132.32-11.36L536.64 76.32a32 32 0 0 0-44-5.76 28 28 0 0 0-5.76 5.76L74.08 528a40.32 40.32 0 0 0 0 53.28 32 32 0 0 0 45.44 4.32 27.52 27.52 0 0 0 4.32-4.32L512 155.04l388.96 425.6a32 32 0 0 0 45.6 4.32 26.56 26.56 0 0 0 4.16-4.32 40.32 40.32 0 0 0-1.28-52.64z" fill="#30343F" p-id="3315">
</path></svg>